<svg xmlns="http://www.w3.org/2000/svg" xmlns:xlink="http://www.w3.org/1999/xlink" width="1080" zoomAndPan="magnify" viewBox="0 0 810 809.999993" height="1080" preserveAspectRatio="xMidYMid meet" version="1.0"><defs><g/><clipPath id="61b9486e39"><rect x="0" width="335" y="0" height="613"/></clipPath><clipPath id="d7b08a116b"><rect x="0" width="346" y="0" height="613"/></clipPath><clipPath id="4398e3f888"><path d="M 1 106 L 389.601562 106 L 389.601562 505 L 1 505 Z M 1 106 " clip-rule="nonzero"/></clipPath><clipPath id="71c7efb3d0"><rect x="0" width="390" y="0" height="543"/></clipPath></defs><g transform="matrix(1, 0, 0, 1, 264, 98)"><g clip-path="url(#61b9486e39)"><g fill="#004aad" fill-opacity="1"><g transform="translate(0.98331, 492.69742)"><g><path d="M 21.8125 0 L 83.640625 -372.390625 L 213.84375 -372.390625 C 239.78125 -372.390625 260.445312 -367.9375 275.84375 -359.03125 C 291.238281 -350.125 301.785156 -338.179688 307.484375 -323.203125 C 313.179688 -308.234375 314.453125 -291.660156 311.296875 -273.484375 C 307.296875 -249.472656 298.265625 -231.585938 284.203125 -219.828125 C 270.140625 -208.078125 254.925781 -200.019531 238.5625 -195.65625 L 237.84375 -192.015625 C 248.988281 -191.285156 259.710938 -187.285156 270.015625 -180.015625 C 280.328125 -172.742188 288.269531 -162.316406 293.84375 -148.734375 C 299.414062 -135.160156 300.628906 -118.554688 297.484375 -98.921875 C 294.328125 -80.253906 287.234375 -63.460938 276.203125 -48.546875 C 265.171875 -33.640625 249.773438 -21.820312 230.015625 -13.09375 C 210.253906 -4.363281 185.707031 0 156.375 0 Z M 73.46875 -40 L 162.921875 -40 C 192.378906 -40 214.289062 -45.726562 228.65625 -57.1875 C 243.019531 -68.644531 251.65625 -82.554688 254.5625 -98.921875 C 256.507812 -111.523438 255.148438 -123.191406 250.484375 -133.921875 C 245.816406 -144.648438 238.117188 -153.253906 227.390625 -159.734375 C 216.660156 -166.222656 203.171875 -169.46875 186.921875 -169.46875 L 95.28125 -169.46875 Z M 101.828125 -208.75 L 185.46875 -208.75 C 199.050781 -208.75 211.78125 -211.414062 223.65625 -216.75 C 235.539062 -222.082031 245.484375 -229.597656 253.484375 -239.296875 C 261.484375 -248.992188 266.453125 -260.390625 268.390625 -273.484375 C 271.296875 -289.847656 268.019531 -303.753906 258.5625 -315.203125 C 249.113281 -326.660156 232.023438 -332.390625 207.296875 -332.390625 L 122.1875 -332.390625 Z M 101.828125 -208.75 "/></g></g></g></g></g><g transform="matrix(1, 0, 0, 1, 431, 98)"><g clip-path="url(#d7b08a116b)"><g fill="#004aad" fill-opacity="1"><g transform="translate(0.548312, 492.69742)"><g><path d="M 56.734375 -332.390625 L 63.28125 -372.390625 L 342.578125 -372.390625 L 336.03125 -332.390625 L 218.921875 -332.390625 L 163.65625 0 L 118.5625 0 L 173.828125 -332.390625 Z M 56.734375 -332.390625 "/></g></g></g></g></g><g transform="matrix(1, 0, 0, 1, 46, 40)"><g clip-path="url(#71c7efb3d0)"><g clip-path="url(#4398e3f888)"><g fill="#004aad" fill-opacity="1"><g transform="translate(3.681924, 380.757866)"><g><path d="M 376.46875 -244.765625 C 382.550781 -227.648438 381.234375 -210.53125 372.515625 -193.40625 C 371.703125 -191.78125 370.710938 -190.304688 369.546875 -188.984375 C 368.390625 -187.671875 366.78125 -186.796875 364.71875 -186.359375 C 363.332031 -186.109375 362.117188 -186.4375 361.078125 -187.34375 C 360.046875 -188.25 359.65625 -189.300781 359.90625 -190.5 C 360.726562 -192.875 361.546875 -195.160156 362.359375 -197.359375 C 362.796875 -198.484375 363.296875 -199.582031 363.859375 -200.65625 C 368.128906 -212.507812 368.882812 -224.234375 366.125 -235.828125 C 363.113281 -249.066406 355.179688 -257.753906 342.328125 -261.890625 C 334.859375 -264.148438 327.328125 -265.375 319.734375 -265.5625 C 312.148438 -265.75 304.441406 -265.15625 296.609375 -263.78125 C 272.710938 -259.382812 249.378906 -252.421875 226.609375 -242.890625 C 191.554688 -228.648438 158.164062 -210.929688 126.4375 -189.734375 C 99.15625 -171.484375 74.601562 -150.003906 52.78125 -125.296875 C 45.1875 -116.773438 38.316406 -107.710938 32.171875 -98.109375 C 26.023438 -88.515625 21.101562 -78.265625 17.40625 -67.359375 C 13.832031 -56.503906 12.109375 -45.5625 12.234375 -34.53125 C 12.671875 -22.613281 15.675781 -12.453125 21.25 -4.046875 C 26.832031 4.355469 34.34375 10.488281 43.78125 14.34375 C 53.226562 18.195312 63.878906 19.15625 75.734375 17.21875 C 90.898438 14.644531 105.257812 9.21875 118.8125 0.9375 C 126.84375 -3.757812 134.335938 -9.070312 141.296875 -15 C 148.253906 -20.925781 154.960938 -27.210938 161.421875 -33.859375 C 177.035156 -50.171875 190.988281 -67.765625 203.28125 -86.640625 C 210.4375 -97.804688 216.363281 -109.597656 221.0625 -122.015625 C 221.3125 -122.453125 221.5 -122.953125 221.625 -123.515625 C 222.757812 -126.398438 224.015625 -129.222656 225.390625 -131.984375 C 227.585938 -135.804688 231.035156 -137.46875 235.734375 -136.96875 C 238.617188 -136.65625 240.21875 -134.992188 240.53125 -131.984375 C 240.53125 -127.523438 239.6875 -123.164062 238 -118.90625 C 227.519531 -88.988281 216.132812 -59.390625 203.84375 -30.109375 C 203.59375 -29.410156 203.3125 -28.71875 203 -28.03125 C 202.3125 -26.65625 201.71875 -25.273438 201.21875 -23.890625 C 201.03125 -23.515625 200.875 -23.109375 200.75 -22.671875 C 200.0625 -21.035156 199.648438 -19.3125 199.515625 -17.5 C 199.515625 -16.8125 199.75 -16.289062 200.21875 -15.9375 C 200.695312 -15.59375 201.28125 -15.296875 201.96875 -15.046875 C 202.84375 -14.734375 203.53125 -14.328125 204.03125 -13.828125 C 204.226562 -13.828125 204.390625 -13.734375 204.515625 -13.546875 C 204.890625 -13.171875 205.21875 -12.78125 205.5 -12.375 C 205.78125 -11.96875 205.640625 -11.414062 205.078125 -10.71875 C 204.703125 -10.03125 204.101562 -9.46875 203.28125 -9.03125 C 202.40625 -8.59375 201.5 -8.375 200.5625 -8.375 C 197.925781 -8.6875 195.851562 -8.117188 194.34375 -6.671875 C 192.84375 -5.234375 191.59375 -3.382812 190.59375 -1.125 C 186.882812 6.707031 183.085938 14.484375 179.203125 22.203125 C 171.234375 38.503906 162.265625 54.367188 152.296875 69.796875 C 146.085938 79.453125 139.128906 88.578125 131.421875 97.171875 C 123.453125 106.265625 114.007812 113.351562 103.09375 118.4375 C 97.144531 121.195312 91.0625 122.734375 84.84375 123.046875 C 77.695312 123.546875 71.878906 121.832031 67.390625 117.90625 C 62.910156 113.988281 60.390625 108.457031 59.828125 101.3125 C 59.390625 95.226562 60.207031 89.144531 62.28125 83.0625 C 66.601562 71.332031 72.96875 60.859375 81.375 51.640625 C 102.757812 27.179688 128.28125 8.960938 157.9375 -3.015625 C 162.894531 -4.953125 167.851562 -6.675781 172.8125 -8.1875 C 173.375 -8.5 174 -8.71875 174.6875 -8.84375 C 178.382812 -9.90625 181.082031 -12.160156 182.78125 -15.609375 C 184.28125 -19.253906 185.847656 -22.863281 187.484375 -26.4375 C 192.054688 -35.96875 195.941406 -45.75 199.140625 -55.78125 C 199.265625 -56.09375 199.265625 -56.375 199.140625 -56.625 C 198.953125 -56.75 198.859375 -56.875 198.859375 -57 C 197.359375 -56.75 196.164062 -56.140625 195.28125 -55.171875 C 194.40625 -54.203125 193.53125 -53.179688 192.65625 -52.109375 C 192.28125 -51.421875 191.8125 -50.734375 191.25 -50.046875 C 180.644531 -37.316406 169.195312 -25.367188 156.90625 -14.203125 C 141.976562 -0.660156 125.421875 9.8125 107.234375 17.21875 C 96.890625 21.351562 86.460938 24.078125 75.953125 25.390625 C 65.453125 26.710938 54.96875 26.335938 44.5 24.265625 C 32.394531 21.816406 22.203125 16 13.921875 6.8125 C 5.640625 -2.371094 0.652344 -13.925781 -1.03125 -27.84375 C -1.976562 -36.5625 -1.664062 -45.148438 -0.09375 -53.609375 C 1.46875 -62.078125 4.070312 -70.453125 7.71875 -78.734375 C 11.851562 -88.015625 16.710938 -96.796875 22.296875 -105.078125 C 27.878906 -113.359375 34.054688 -121.351562 40.828125 -129.0625 C 64.660156 -156.09375 91.753906 -179.328125 122.109375 -198.765625 C 143.804688 -212.878906 166.128906 -225.421875 189.078125 -236.390625 C 212.035156 -247.367188 235.742188 -256.5 260.203125 -263.78125 C 270.921875 -267.101562 281.796875 -269.625 292.828125 -271.34375 C 303.867188 -273.070312 314.910156 -273.71875 325.953125 -273.28125 C 337.554688 -272.894531 348.40625 -270.226562 358.5 -265.28125 C 367.28125 -260.820312 373.269531 -253.984375 376.46875 -244.765625 Z M 173.46875 3.015625 C 173.71875 2.003906 173.578125 1.1875 173.046875 0.5625 C 172.515625 -0.0585938 171.742188 -0.214844 170.734375 0.09375 C 168.546875 0.78125 166.414062 1.535156 164.34375 2.359375 C 138.945312 13.515625 116.585938 29.253906 97.265625 49.578125 C 90.242188 56.847656 84.253906 64.90625 79.296875 73.75 C 75.535156 79.957031 73.25 87.265625 72.4375 95.671875 C 72.4375 95.796875 72.4375 96.078125 72.4375 96.515625 C 72.3125 97.640625 72.3125 99.082031 72.4375 100.84375 C 73.125 107.175781 75.300781 111.421875 78.96875 113.578125 C 82.632812 115.742188 87.507812 115.578125 93.59375 113.078125 C 102.375 109.054688 110.085938 103.410156 116.734375 96.140625 C 125.015625 87.421875 132.320312 78.015625 138.65625 67.921875 C 144.988281 58.140625 150.882812 48.101562 156.34375 37.8125 C 161.800781 27.53125 167.003906 17.148438 171.953125 6.671875 C 172.523438 5.421875 173.03125 4.265625 173.46875 3.203125 C 173.46875 3.078125 173.46875 3.015625 173.46875 3.015625 Z M 173.46875 3.015625 "/></g></g></g></g></g></g></svg>